<?xml version="1.0" encoding="UTF-8"?> <svg xmlns="http://www.w3.org/2000/svg" width="522.151" height="214.392" viewBox="0 0 522.151 214.392"><path id="XMLID_34_" d="M95.465,27.64c-6.12,7.242-15.911,12.953-25.7,12.137-1.224-9.791,3.57-20.195,9.179-26.62C85.062,5.712,95.771.408,104.441,0c1.02,10.2-2.958,20.195-8.976,27.64m8.874,14.075c-14.177-.816-26.315,8.058-33.046,8.058-6.834,0-17.135-7.65-28.354-7.446-14.585.2-28.15,8.466-35.6,21.623-15.3,26.315-3.978,65.276,10.811,86.7,7.242,10.607,15.911,22.235,27.334,21.827,10.811-.408,15.1-7.038,28.15-7.038,13.157,0,16.931,7.038,28.354,6.834,11.831-.2,19.277-10.607,26.518-21.215a93.033,93.033,0,0,0,11.831-24.377c-.2-.2-22.847-8.873-23.051-34.984-.2-21.827,17.849-32.23,18.665-32.842-10.2-15.1-26.111-16.727-31.618-17.135m81.9-29.578V171.146h24.683V116.783h34.168c31.21,0,53.139-21.419,53.139-52.425s-21.521-52.221-52.323-52.221H186.24Zm24.683,20.807h28.456c21.419,0,33.658,11.423,33.658,31.516S260.8,96.079,239.277,96.079H210.923ZM343.311,172.37c15.5,0,29.884-7.854,36.412-20.3h.51v19.073H403.08V92c0-22.949-18.359-37.738-46.611-37.738-26.213,0-45.591,14.993-46.305,35.6H332.4c1.836-9.791,10.913-16.217,23.357-16.217,15.1,0,23.561,7.038,23.561,19.991V102.4l-30.8,1.836c-28.66,1.734-44.164,13.463-44.164,33.862C304.35,158.7,320.363,172.37,343.311,172.37Zm6.63-18.869c-13.157,0-21.521-6.324-21.521-16.013,0-10,8.058-15.809,23.459-16.727l27.436-1.734V128C379.315,142.894,366.668,153.5,349.941,153.5Zm83.635,60.891c24.071,0,35.392-9.179,45.285-37.024L522.209,55.791H497.119L468.05,149.728h-.51L438.472,55.791h-25.8l41.818,115.763-2.244,7.038c-3.774,11.933-9.894,16.523-20.807,16.523-1.938,0-5.712-.2-7.242-.408V213.78C425.621,214.188,431.74,214.392,433.576,214.392Z" transform="translate(-0.059)" fill="#f9f9f9"></path></svg> 